<svg xmlns="http://www.w3.org/2000/svg" viewBox="0 0 64 64" role="img" aria-label="Yetkili Servis Gaz Acma amblemi">
  <rect width="64" height="64" rx="16" fill="#35B5E5"/>
  <path fill="#FFFFFF" d="M45.6 7.3C36.2 9.7 29.2 18.2 29.2 28.4c0 10.2 7 18.7 16.4 21.1A27.8 27.8 0 0 1 27.8 56C12.4 56 0 43.6 0 28.2S12.4.4 27.8.4c6.8 0 13 2.5 17.8 6.9Z"/>
  <path fill="#8ACD62" d="M55.3 31.5c5.6 8.8 7.1 14.2 4.4 19.2-2.3 4.2-6.9 6.7-11.8 6.3-4.8-.4-8.8-3.6-10.2-8.1-1.9-6.1 1.6-12.3 8.1-19.8 2.6-3 5.4-6.6 7.8-11.3-.2 5 .4 9.3 1.7 13.7Z"/>
</svg>
